# File created by Blade
# Date/Time:  Tue Jan 27 17:01:45 2015
#---------------------------------------------------------
:version 1.10
:name HOM
:units
  mass 1.0
  length 1.000000
  angle deg
:documentation
     Acclaim Skeleton File
:root
   axis xyz
   order TX TY TZ RX RY RZ
   position 0.000000 0.000000 0.000000
   orientation 0 0 0
:bonedata
   begin
      id 1
      name Spine_dum
      direction 0.000000 1.000000 0.000000
      length 7.539951
      axis 0.0 0.0 0.0 xyz
   end
   begin
      id 2
      name LeftUpLeg_dum
      direction 1.000000 0.000000 0.000000
      length 3.345476
      axis 0.0 0.0 0.0 xyz
   end
   begin
      id 3
      name RightUpLeg_dum
      direction -1.000000 0.000000 0.000000
      length 3.345476
      axis 0.0 0.0 0.0 xyz
   end
   begin
      id 4
      name Spine
      direction 0.000000 1.000000 0.000000
      length 0.000000
      axis 0.0 0.0 0.0 xyz
      dof rx ry rz
   end
   begin
      id 5
      name Spine_dum1
      direction 0.000000 1.000000 0.000000
      length 15.093809
      axis 0.0 0.0 0.0 xyz
   end
   begin
      id 6
      name Spine_dum2
      direction 0.000000 1.000000 0.000000
      length 9.738928
      axis 0.0 0.0 0.0 xyz
   end
   begin
      id 7
      name Spine_dum3
      direction 0.000000 1.000000 0.000000
      length 9.738928
      axis 0.0 0.0 0.0 xyz
   end
   begin
      id 8
      name Head
      direction 0.000000 1.000000 0.000000
      length 4.527550
      axis 0.0 0.0 0.0 xyz
      dof rx ry rz
   end
   begin
      id 9
      name LeftShoulder
      direction 1.000000 0.000000 0.000000
      length 7.084015
      axis 0.0 0.0 -90.0 xyz
      dof rx ry rz
   end
   begin
      id 10
      name LeftArm
      direction 1.000000 0.000000 0.000000
      length 10.259319
      axis 0.0 0.0 -90.0 xyz
      dof rx ry rz
   end
   begin
      id 11
      name LeftForeArm
      direction 1.000000 0.000000 0.000000
      length 9.896984
      axis 0.0 0.0 -90.0 xyz
      dof ry rz rx
   end
   begin
      id 12
      name LeftHand
      direction 0.000000 0.000000 0.000000
      length 0.000000
      axis 0.0 0.0 -90.0 xyz
      dof rx ry rz
   end
   begin
      id 13
      name LeftHand_dum1
      direction 0.000000 0.000000 0.000000
      length 0.000000
      axis 0.0 0.0 -90.0 xyz
   end
   begin
      id 14
      name LeftHand_dum2
      direction 1.000000 0.000000 0.000000
      length 3.937000
      axis 0.0 0.0 -90.0 xyz
   end
   begin
      id 15
      name LeftHandThumb1
      direction 0.000000 0.000000 1.000000
      length 3.937000
      axis 0.0 0.0 -90.0 xyz
      dof rx rz ry
   end
   begin
      id 16
      name RightShoulder
      direction -1.000000 0.000000 0.000000
      length 7.084015
      axis 0.0 0.0 90.0 xyz
      dof rx ry rz
   end
   begin
      id 17
      name RightArm
      direction -1.000000 0.000000 0.000000
      length 10.259319
      axis 0.0 0.0 90.0 xyz
      dof rx ry rz
   end
   begin
      id 18
      name RightForeArm
      direction -1.000000 0.000000 0.000000
      length 9.896984
      axis 0.0 0.0 90.0 xyz
      dof ry rz rx
   end
   begin
      id 19
      name RightHand
      direction 0.000000 0.000000 0.000000
      length 0.000000
      axis 0.0 0.0 90.0 xyz
      dof rx ry rz
   end
   begin
      id 20
      name RightHand_dum1
      direction 0.000000 0.000000 0.000000
      length 0.000000
      axis 0.0 0.0 90.0 xyz
   end
   begin
      id 21
      name RightHand_dum2
      direction -1.000000 0.000000 0.000000
      length 3.937000
      axis 0.0 0.0 90.0 xyz
   end
   begin
      id 22
      name RightHandThumb1
      direction 0.000000 0.000000 1.000000
      length 3.937000
      axis 0.0 0.0 90.0 xyz
      dof rx rz ry
   end
   begin
      id 23
      name LeftUpLeg
      direction 0.000000 -1.000000 0.000000
      length 19.114733
      axis 0.0 0.0 0.0 xyz
      dof rx ry rz
   end
   begin
      id 24
      name LeftLeg
      direction 0.000000 -1.000000 0.000000
      length 16.045604
      axis 0.0 0.0 0.0 xyz
      dof rx ry rz
   end
   begin
      id 25
      name LeftFoot
      direction 0.000000 -0.258819 0.965926
      length 5.543155
      axis 15.0 0.0 0.0 xyz
      dof rx ry rz
   end
   begin
      id 26
      name LeftToeBase
      direction 0.000000 0.000000 1.000000
      length 2.952750
      axis 0.0 0.0 0.0 xyz
      dof rx ry rz
   end
   begin
      id 27
      name RightUpLeg
      direction 0.000000 -1.000000 0.000000
      length 19.114733
      axis 0.0 0.0 0.0 xyz
      dof rx ry rz
   end
   begin
      id 28
      name RightLeg
      direction 0.000000 -1.000000 0.000000
      length 16.045604
      axis 0.0 0.0 0.0 xyz
      dof rx ry rz
   end
   begin
      id 29
      name RightFoot
      direction 0.000000 -0.258819 0.965926
      length 5.543155
      axis 15.0 0.0 0.0 xyz
      dof rx ry rz
   end
   begin
      id 30
      name RightToeBase
      direction 0.000000 0.000000 1.000000
      length 2.952750
      axis 0.0 0.0 0.0 xyz
      dof rx ry rz
   end
:hierarchy
   begin
      root Spine_dum LeftUpLeg_dum RightUpLeg_dum
      Spine_dum Spine
      LeftUpLeg_dum LeftUpLeg
      RightUpLeg_dum RightUpLeg
      Spine Spine_dum1 Spine_dum2 Spine_dum3
      Spine_dum1 Head
      Spine_dum2 LeftShoulder
      Spine_dum3 RightShoulder
      LeftShoulder LeftArm
      LeftArm LeftForeArm
      LeftForeArm LeftHand
      LeftHand LeftHand_dum1 LeftHand_dum2
      LeftHand_dum1 LeftHandThumb1
      RightShoulder RightArm
      RightArm RightForeArm
      RightForeArm RightHand
      RightHand RightHand_dum1 RightHand_dum2
      RightHand_dum1 RightHandThumb1
      LeftUpLeg LeftLeg
      LeftLeg LeftFoot
      LeftFoot LeftToeBase
      RightUpLeg RightLeg
      RightLeg RightFoot
      RightFoot RightToeBase
   end

# File created by Blade
# Date/Time:  Tue Jan 27 17:01:38 2015
# Frame Rate: 120.000 fps
#------------------------------------------------------
:FULLY-SPECIFIED
:DEGREES
967
root -0.943741 36.852595 5.015419 4.048355 0.919923 -0.706290
Spine -0.602793 6.576664 -3.445702
Head -1.343283 1.724070 2.977187
LeftShoulder -1.723437 -0.521528 -0.625783
LeftArm -4.451144 -10.378229 -70.763083
LeftForeArm -67.743197 -0.000000 97.249509
LeftHand -3.559948 -0.000000 -17.334300
LeftHandThumb1 -26.253704 0.000000 33.147579
RightShoulder -1.720322 -22.151158 0.593377
RightArm 26.990679 -33.852651 49.933912
RightForeArm -148.010291 -0.000000 35.075638
RightHand -1.170792 0.000000 -2.522113
RightHandThumb1 -24.326973 -0.000000 -32.862282
LeftUpLeg -1.920606 13.254875 5.208133
LeftLeg 7.545161 -0.000000 -0.000000
LeftFoot -16.394209 2.544131 -20.443168
LeftToeBase 14.943422 -0.000000 -0.000000
RightUpLeg -3.751968 -9.630306 -1.360277
RightLeg 10.338857 -0.000000 -0.000000
RightFoot -16.274027 -4.394326 14.468113
RightToeBase 11.085026 -0.000000 -0.000000
968
root -0.943939 36.853892 5.013794 4.062473 1.196891 -0.690029
Spine -0.635578 6.447709 -3.469830
Head -1.275214 1.778609 2.914121
LeftShoulder -1.670692 -0.580650 -0.610013
LeftArm -4.340279 -10.092848 -70.839929
LeftForeArm -67.588476 -0.000000 97.290485
LeftHand -3.505333 0.000000 -17.457495
LeftHandThumb1 -26.253704 0.000000 33.147579
RightShoulder -1.697280 -22.133904 0.594430
RightArm 27.082488 -33.827519 49.870433
RightForeArm -147.948043 -0.000000 35.206530
RightHand -1.145127 -0.000000 -2.571390
RightHandThumb1 -24.326973 -0.000000 -32.862282
LeftUpLeg -1.967010 13.108609 5.198019
LeftLeg 7.490369 -0.000000 -0.000000
LeftFoot -16.304606 2.461864 -20.405171
LeftToeBase 14.943367 -0.000000 -0.000000
RightUpLeg -3.738688 -9.793849 -1.355194
RightLeg 10.347139 -0.000000 -0.000000
RightFoot -16.306113 -4.494706 14.480842
RightToeBase 11.041339 -0.000000 -0.000000
969
root -0.945688 36.855510 5.008872 4.091076 1.453315 -0.671722
Spine -0.674108 6.338029 -3.510183
Head -1.227264 1.824210 2.878299
LeftShoulder -1.598229 -0.636299 -0.577664
LeftArm -4.220131 -9.857451 -70.905382
LeftForeArm -67.467406 -0.000000 97.318642
LeftHand -3.604292 -0.000000 -17.490447
LeftHandThumb1 -26.253704 0.000000 33.147579
RightShoulder -1.687991 -22.097872 0.623066
RightArm 27.129725 -33.747041 49.860043
RightForeArm -147.885586 -0.000000 35.349742
RightHand -1.124130 -0.000000 -2.636886
RightHandThumb1 -24.326973 -0.000000 -32.862282
LeftUpLeg -2.031110 12.951189 5.185701
LeftLeg 7.439621 -0.000000 -0.000000
LeftFoot -16.214514 2.383440 -20.404111
LeftToeBase 14.943234 -0.000000 -0.000000
RightUpLeg -3.750302 -9.913013 -1.349498
RightLeg 10.362607 -0.000000 -0.000000
RightFoot -16.336128 -4.629382 14.496674
RightToeBase 11.024351 -0.000000 -0.000000
970
root -0.949446 36.856775 5.005160 4.128431 1.695239 -0.661387
Spine -0.733887 6.236276 -3.547030
Head -1.176047 1.862632 2.851879
LeftShoulder -1.522391 -0.691288 -0.542426
LeftArm -4.107744 -9.579241 -70.959009
LeftForeArm -67.431787 -0.000000 97.351971
LeftHand -3.820039 -0.000000 -18.052812
LeftHandThumb1 -26.253704 0.000000 33.147579
RightShoulder -1.676032 -22.084324 0.645415
RightArm 27.177150 -33.667018 49.878413
RightForeArm -147.853540 -0.000000 35.458612
RightHand -1.257125 0.000000 -2.539677
RightHandThumb1 -24.326973 -0.000000 -32.862282
LeftUpLeg -2.109123 12.841712 5.183454
LeftLeg 7.415963 -0.000000 -0.000000
LeftFoot -16.135285 2.273156 -20.380748
LeftToeBase 14.958571 -0.000000 -0.000000
RightUpLeg -3.765807 -10.035432 -1.331530
RightLeg 10.364979 -0.000000 -0.000000
RightFoot -16.381527 -4.735732 14.564018
RightToeBase 11.044239 -0.000000 -0.000000
971
root -0.951075 36.857652 5.002277 4.168058 1.895858 -0.655067
Spine -0.798933 6.166130 -3.571484
Head -1.131938 1.917448 2.794049
LeftShoulder -1.467026 -0.733559 -0.513025
LeftArm -3.972682 -9.393688 -71.008154
LeftForeArm -67.334311 -0.000000 97.406185
LeftHand -3.527660 -0.000000 -17.493553
LeftHandThumb1 -26.253704 0.000000 33.147579
RightShoulder -1.675950 -22.058586 0.654045
RightArm 27.222015 -33.626075 49.899561
RightForeArm -147.809633 -0.000000 35.579274
RightHand -1.269478 0.000000 -2.381162
RightHandThumb1 -24.326973 -0.000000 -32.862282
LeftUpLeg -2.172773 12.726668 5.174126
LeftLeg 7.367573 -0.000000 -0.000000
LeftFoot -16.079277 2.245566 -20.358110
LeftToeBase 15.007315 -0.000000 -0.000000
RightUpLeg -3.790440 -10.130129 -1.316497
RightLeg 10.376663 -0.000000 -0.000000
RightFoot -16.424808 -4.809196 14.627188
RightToeBase 11.095017 -0.000000 -0.000000
972
root -0.950430 36.858305 4.999457 4.221786 2.085158 -0.648898
Spine -0.884741 6.084209 -3.583793
Head -1.092025 1.958332 2.720316
LeftShoulder -1.420958 -0.792374 -0.506146
LeftArm -3.916571 -9.122066 -71.048739
LeftForeArm -66.961984 0.000000 97.485755
LeftHand -3.684762 -0.000000 -17.278669
LeftHandThumb1 -26.253704 0.000000 33.147579
RightShoulder -1.649547 -22.078192 0.659031
RightArm 27.239002 -33.512034 49.933720
RightForeArm -147.786809 -0.000000 35.739911
RightHand -1.229384 -0.000000 -2.374476
RightHandThumb1 -24.326973 -0.000000 -32.862282
LeftUpLeg -2.227527 12.569709 5.167006
LeftLeg 7.287395 -0.000000 -0.000000
LeftFoot -16.010951 2.188402 -20.397752
LeftToeBase 14.969083 -0.000000 -0.000000
RightUpLeg -3.829544 -10.255552 -1.301257
RightLeg 10.383755 -0.000000 -0.000000
RightFoot -16.448647 -4.878159 14.626526
RightToeBase 11.075706 -0.000000 -0.000000
973
root -0.950636 36.859155 4.997578 4.268852 2.226415 -0.639685
Spine -0.970507 6.035102 -3.613518
Head -1.051224 2.019528 2.683517
LeftShoulder -1.380433 -0.818873 -0.479335
LeftArm -3.820668 -8.900712 -71.085464
LeftForeArm -66.918599 -0.000000 97.513829
LeftHand -3.826346 -0.000000 -17.611508
LeftHandThumb1 -26.253704 0.000000 33.147579
RightShoulder -1.636610 -22.075185 0.677247
RightArm 27.269056 -33.430622 49.966682
RightForeArm -147.740719 -0.000000 35.846684
RightHand -1.315524 0.000000 -2.389953
RightHandThumb1 -24.326973 -0.000000 -32.862282
LeftUpLeg -2.274277 12.517594 5.154077
LeftLeg 7.217718 -0.000000 -0.000000
LeftFoot -15.946602 2.128079 -20.392382
LeftToeBase 14.997427 -0.000000 -0.000000
RightUpLeg -3.861677 -10.315852 -1.293287
RightLeg 10.383001 -0.000000 -0.000000
RightFoot -16.470756 -4.938225 14.671391
RightToeBase 11.059283 -0.000000 -0.000000
974
root -0.951202 36.859845 4.997716 4.293040 2.354775 -0.633195
Spine -1.026316 6.001941 -3.634392
Head -1.018162 2.079832 2.643824
LeftShoulder -1.331738 -0.866090 -0.460769
LeftArm -3.736508 -8.671078 -71.110213
LeftForeArm -66.761340 0.000000 97.557166
LeftHand -3.814644 -0.000000 -17.711207
LeftHandThumb1 -26.253704 0.000000 33.147579
RightShoulder -1.637589 -22.074558 0.702146
RightArm 27.287957 -33.331775 50.018815
RightForeArm -147.731294 -0.000000 35.957621
RightHand -1.369959 -0.000000 -2.391785
RightHandThumb1 -24.326973 -0.000000 -32.862282
LeftUpLeg -2.291120 12.446345 5.148504
LeftLeg 7.148151 -0.000000 -0.000000
LeftFoot -15.887043 2.103086 -20.348284
LeftToeBase 15.026384 -0.000000 -0.000000
RightUpLeg -3.866164 -10.399442 -1.285805
RightLeg 10.371281 -0.000000 -0.000000
RightFoot -16.472923 -4.982286 14.678179
RightToeBase 11.012721 -0.000000 -0.000000
975
root -0.949898 36.860475 4.998330 4.314607 2.486596 -0.615917
Spine -1.076096 5.951624 -3.664799
Head -0.997728 2.124904 2.603331
LeftShoulder -1.294459 -0.907268 -0.444387
LeftArm -3.645742 -8.487739 -71.130389
LeftForeArm -66.610683 -0.000000 97.583608
LeftHand -3.736537 -0.000000 -17.807467
LeftHandThumb1 -26.253704 0.000000 33.147579
RightShoulder -1.642236 -22.067599 0.727334
RightArm 27.344206 -33.288953 50.014137
RightForeArm -147.605574 -0.000000 36.071827
RightHand -1.359061 -0.000000 -2.299865
RightHandThumb1 -24.326973 -0.000000 -32.862282
LeftUpLeg -2.311249 12.354280 5.129685
LeftLeg 7.090612 -0.000000 -0.000000
LeftFoot -15.837463 2.083985 -20.370384
LeftToeBase 15.024156 -0.000000 -0.000000
RightUpLeg -3.900210 -10.517486 -1.284828
RightLeg 10.430166 -0.000000 -0.000000
RightFoot -16.515219 -5.013751 14.663238
RightToeBase 11.029990 -0.000000 -0.000000
976
root -0.947871 36.861042 4.997706 4.348712 2.579025 -0.598008
Spine -1.144942 5.926385 -3.697968
Head -0.977110 2.145811 2.553703
LeftShoulder -1.255394 -0.957173 -0.427238
LeftArm -3.600465 -8.268187 -71.153912
LeftForeArm -66.527914 0.000000 97.646112
LeftHand -3.850523 -0.000000 -17.825522
LeftHandThumb1 -26.253704 0.000000 33.147579
RightShoulder -1.626561 -22.081560 0.741148
RightArm 27.383603 -33.239577 50.037982
RightForeArm -147.600803 -0.000000 36.175755
RightHand -1.465781 -0.000000 -2.179445
RightHandThumb1 -24.326973 -0.000000 -32.862282
LeftUpLeg -2.340251 12.278893 5.102151
LeftLeg 7.034391 -0.000000 -0.000000
LeftFoot -15.791484 2.107148 -20.328680
LeftToeBase 14.991833 -0.000000 -0.000000
RightUpLeg -3.936643 -10.578860 -1.292411
RightLeg 10.463578 -0.000000 -0.000000
RightFoot -16.553281 -5.077920 14.661319
RightToeBase 11.091501 -0.000000 -0.000000
977
root -0.947430 36.861893 4.994963 4.424355 2.670232 -0.583809
Spine -1.265978 5.896452 -3.738530
Head -0.949127 2.171405 2.519652
LeftShoulder -1.221309 -0.970150 -0.402471
LeftArm -3.540372 -8.057749 -71.168364
LeftForeArm -66.424906 -0.000000 97.695154
LeftHand -3.946049 -0.000000 -17.850727
LeftHandThumb1 -26.253704 0.000000 33.147579
RightShoulder -1.625034 -22.060406 0.769452
RightArm 27.376548 -33.223456 50.076427
RightForeArm -147.527113 -0.000000 36.300530
RightHand -1.456951 -0.000000 -2.169050
RightHandThumb1 -24.326973 -0.000000 -32.862282
LeftUpLeg -2.424471 12.205181 5.073874
LeftLeg 7.003553 -0.000000 -0.000000
LeftFoot -15.757229 2.097261 -20.327245
LeftToeBase 15.005635 -0.000000 -0.000000
RightUpLeg -4.004337 -10.647633 -1.286504
RightLeg 10.459242 -0.000000 -0.000000
RightFoot -16.558791 -5.108308 14.654790
RightToeBase 11.053766 -0.000000 -0.000000
